<svg xmlns="http://www.w3.org/2000/svg" fill="none" viewBox="0 0 256 256"><path fill="url(#a)" d="M127.28 29c-50.772 0-47.602 22.018-47.602 22.018l.057 22.81h48.45v6.849H60.49S28 76.992 28 128.222c0 51.23 28.358 49.414 28.358 49.414h16.924v-23.773s-.913-28.357 27.905-28.357h48.054s26.999.436 26.999-26.094V55.546S180.339 29 127.28 29zm-26.716 15.339c4.821 0 8.717 3.896 8.717 8.717s-3.896 8.716-8.717 8.716c-4.82 0-8.716-3.896-8.716-8.716s3.896-8.717 8.716-8.717z"/><path fill="url(#b)" d="M128.72 227.96c50.772 0 47.602-22.017 47.602-22.017l-.057-22.811h-48.451v-6.849h67.696s32.489 3.685 32.489-47.545c0-51.23-28.357-49.413-28.357-49.413h-16.924v23.773s.912 28.357-27.905 28.357h-48.054s-26.999-.437-26.999 26.093v43.866s-4.1 26.546 48.96 26.546zm26.716-15.339a8.708 8.708 0 0 1-8.717-8.716 8.708 8.708 0 0 1 8.717-8.717 8.709 8.709 0 0 1 8.717 8.717 8.709 8.709 0 0 1-8.717 8.716z"/><defs><linearGradient id="a" x1="47.22" x2="146.33" y1="46.896" y2="145.02" gradientUnits="userSpaceOnUse"><stop offset="0" stop-color="#387EB8"/><stop offset="1" stop-color="#366994"/></linearGradient><linearGradient id="b" x1="108.06" x2="214.49" y1="109.9" y2="210.52" gradientUnits="userSpaceOnUse"><stop offset="0" stop-color="#FFE052"/><stop offset="1" stop-color="#FFC331"/></linearGradient></defs></svg>