<svg xmlns="http://www.w3.org/2000/svg" id="svg2" width="64" height="53.333" version="1.1" viewBox="0 0 64 53.333"
     xml:space="preserve"><defs id="defs6"><clipPath id="clipPath20" clipPathUnits="userSpaceOnUse"><path style="clip-rule:evenodd" id="path18" d="m 5.775597,38.08069 0.164855,-0.14024 4.882338,-4.88167 c 0.08061,0.04839 0.16287,0.095 0.24667,0.13982 C 12.04724,33.72152 13.0171,34 15.69166,34 h 12.61668 c 2.67456,0 3.64442,-0.27848 4.6222,-0.8014 0.97777,-0.52292 1.74514,-1.29029 2.26806,-2.26806 C 35.72152,29.95276 36,28.9829 36,26.30834 V 13.69166 C 36,11.0171 35.72152,10.04724 35.1986,9.069463 L 35.058,8.824 39.94045,3.940452 c 0.5194,-0.519397 0.5194,-1.361507 0,-1.880904 C 39.47299,1.59209 38.74414,1.545345 38.2244,1.919311 L 38.05955,2.059548 4.059548,36.05955 c -0.519397,0.5194 -0.519397,1.3615 0,1.8809 0.467458,0.46746 1.196312,0.51421 1.716049,0.14024 z M 8.071607,28.27173 30.27173,6.071607 C 29.73598,6.024159 29.09611,6 28.30834,6 H 15.69166 C 13.0171,6 12.04724,6.278477 11.06946,6.801398 10.09169,7.324319 9.324319,8.091685 8.801398,9.069463 8.278477,10.04724 8,11.0171 8,13.69166 v 12.61668 c 0,0.78777 0.024159,1.42764 0.071607,1.96339 z M 45.39951,29.68814 C 45.77906,29.3845 46,28.9248 46,28.43875 v -16.8775 c 0,-0.88366 -0.71634,-1.6 -1.6,-1.6 -0.48605,0 -0.94575,0.22094 -1.24939,0.60049 l -4.27409,5.3426 C 38.30912,16.6136 38,17.49484 38,18.40312 v 3.19376 c 0,0.90828 0.30912,1.78952 0.87652,2.49878 l 4.27409,5.3426 c 0.55202,0.69002 1.55888,0.8019 2.2489,0.24988 z"/></clipPath></defs><g id="g10" transform="matrix(1.3333333,0,0,-1.3333333,0,53.333333)"><g id="g14"><g id="g16" clip-path="url(#clipPath20)"><path id="path22" style="fill:#fff;fill-opacity:1;fill-rule:nonzero;stroke:none" d="M 1.540151,40.45466 H 48 V -0.4546554 H 1.540151 Z"/></g></g></g></svg>