<svg xmlns="http://www.w3.org/2000/svg" height="48" viewBox="0 -960 960 960" width="48"><path d="M480-425.934 277.783-223.717q-11.826 11.826-27.283 11.826t-26.783-11.826q-11.826-11.826-11.576-27.033t11.576-26.533L425.934-480 223.717-682.717q-11.326-11.326-11.326-26.533t11.326-27.033q11.326-11.826 26.783-11.826t27.283 11.326L480-534.066l202.717-202.717q11.326-11.326 26.783-11.326t27.283 11.826q11.326 11.826 11.076 27.033t-11.576 26.533L534.066-480l202.217 202.717q11.326 11.326 11.326 26.533t-11.326 27.033q-11.326 11.826-26.783 11.826t-26.783-11.826L480-425.934Z"/></svg>