<svg xmlns="http://www.w3.org/2000/svg" viewBox="0 0 100 100" width="100" height="100" preserveAspectRatio="xMidYMid meet" style="width: 100%; height: 100%; transform: translate3d(0px, 0px, 0px); content-visibility: visible;"><defs><clipPath id="__lottie_element_2"><rect width="100" height="100" x="0" y="0"></rect></clipPath><clipPath id="__lottie_element_4"><path d="M0,0 L512,0 L512,512 L0,512z"></path></clipPath></defs><g clip-path="url(#__lottie_element_2)"><g clip-path="url(#__lottie_element_4)" transform="matrix(0.13600000739097595,0,0,0.13600000739097595,15.183998107910156,15.183998107910156)" opacity="1" style="display: block;"><g transform="matrix(1,0,0,1,256,255.99998474121094)" opacity="1" style="display: none;"><g opacity="1" transform="matrix(1,0,0,1,0,0)"><path fill="rgb(255,255,255)" fill-opacity="1" d=" M97.5,-14.607999801635742 C103.0009994506836,-14.607999801635742 107.45999908447266,-10.14900016784668 107.45999908447266,-4.6479997634887695 C107.45999908447266,51.3380012512207 64.64600372314453,97.3239974975586 9.972999572753906,102.3550033569336 C9.972999572753906,102.3550033569336 9.960000038146973,145.3520050048828 9.960000038146973,145.3520050048828 C9.960000038146973,150.85299682617188 5.500999927520752,155.31199645996094 0,155.31199645996094 C-5.000999927520752,155.31199645996094 -9.140999794006348,151.6269989013672 -9.85200023651123,146.82400512695312 C-9.85200023651123,146.82400512695312 -9.960000038146973,145.3520050048828 -9.960000038146973,145.3520050048828 C-9.960000038146973,145.3520050048828 -9.958000183105469,102.35700225830078 -9.958000183105469,102.35700225830078 C-64.63800048828125,97.33300018310547 -107.45999908447266,51.34299850463867 -107.45999908447266,-4.6479997634887695 C-107.45999908447266,-10.14900016784668 -103.0009994506836,-14.607999801635742 -97.5,-14.607999801635742 C-91.9990005493164,-14.607999801635742 -87.54000091552734,-10.14900016784668 -87.54000091552734,-4.6479997634887695 C-87.54000091552734,43.69900131225586 -48.34700012207031,82.89199829101562 0,82.89199829101562 C48.34700012207031,82.89199829101562 87.54000091552734,43.69900131225586 87.54000091552734,-4.6479997634887695 C87.54000091552734,-10.14900016784668 91.9990005493164,-14.607999801635742 97.5,-14.607999801635742z M0,-154.6479949951172 C33.137001037597656,-154.6479949951172 60,-127.78500366210938 60,-94.64800262451172 C60,-94.64800262451172 60,-4.6479997634887695 60,-4.6479997634887695 C60,28.48900032043457 33.137001037597656,55.35200119018555 0,55.35200119018555 C-33.137001037597656,55.35200119018555 -60,28.48900032043457 -60,-4.6479997634887695 C-60,-4.6479997634887695 -60,-94.64800262451172 -60,-94.64800262451172 C-60,-127.78500366210938 -33.137001037597656,-154.6479949951172 0,-154.6479949951172z"></path></g></g><g transform="matrix(1,0,0,1,255.6739959716797,255.95098876953125)" opacity="1" style="display: block;"><g opacity="1" transform="matrix(1,0,0,1,0,0)"><path fill="rgb(255,255,255)" fill-opacity="1" d=" M-60.01499938964844,-78.77799987792969 C-60.01499938964844,-78.77799987792969 -60,-94.64800262451172 -60,-94.64800262451172 C-60,-127.78500366210938 -33.137001037597656,-154.6479949951172 0,-154.6479949951172 C33.137001037597656,-154.6479949951172 60,-127.78500366210938 60,-94.64800262451172 C60,-94.64800262451172 60,-4.6479997634887695 60,-4.6479997634887695 C60,8.314000129699707 55.88999938964844,20.31599998474121 48.9010009765625,30.125999450683594 C48.9010009765625,30.125999450683594 22.849000930786133,4.077000141143799 22.849000930786133,4.077000141143799 C22.849000930786133,4.077000141143799 21.523000717163086,2.750999927520752 21.523000717163086,2.750999927520752 C21.523000717163086,2.750999927520752 -45.540000915527344,-64.30500030517578 -45.540000915527344,-64.30500030517578 C-45.540000915527344,-64.30500030517578 -52.96200180053711,-71.72599792480469 -52.96200180053711,-71.72599792480469 C-52.96200180053711,-71.72599792480469 -60.01499938964844,-78.77799987792969 -60.01499938964844,-78.77799987792969z"></path></g><g opacity="1" transform="matrix(1,0,0,1,0,0)"><path fill="rgb(255,255,255)" fill-opacity="1" d=" M-60.01499938964844,-22.243000030517578 C-60.01499938964844,-22.243000030517578 -50.62900161743164,-12.854999542236328 -50.62900161743164,-12.854999542236328 C-50.62900161743164,-12.854999542236328 -49.27799987792969,-11.503999710083008 -49.27799987792969,-11.503999710083008 C-49.27799987792969,-11.503999710083008 15.538000106811523,53.32099914550781 15.538000106811523,53.32099914550781 C10.581999778747559,54.645999908447266 5.374000072479248,55.35200119018555 0,55.35200119018555 C-33.137001037597656,55.35200119018555 -60,28.48900032043457 -60,-4.6479997634887695 C-60,-4.6479997634887695 -60.01499938964844,-22.243000030517578 -60.01499938964844,-22.243000030517578z"></path></g></g><g transform="matrix(1,0,0,1,255.6739959716797,255.95098876953125)" opacity="1" style="display: block;"><g opacity="1" transform="matrix(1,0,0,1,0,0)"><path stroke-linecap="round" stroke-linejoin="round" fill-opacity="0" stroke="rgb(255,255,255)" stroke-opacity="1" stroke-width="20" d=" M0,145.55599975585938 C0,145.55599975585938 0,96.55599975585938 0,96.55599975585938"></path></g></g><g transform="matrix(1,0,0,1,255.6739959716797,255.95098876953125)" opacity="1" style="display: block;"><g opacity="1" transform="matrix(1,0,0,1,0,0)"><path stroke-linecap="round" stroke-linejoin="round" fill-opacity="0" stroke="rgb(255,255,255)" stroke-opacity="1" stroke-width="20" d=" M24.513999938964844,89.69400024414062 C16.65399932861328,91.50299835205078 8.381999969482422,92.4229965209961 -0.18799999356269836,92.4229965209961 C-52.65700149536133,92.4229965209961 -94,55.35200119018555 -97.8489990234375,-4.7729997634887695"></path></g></g><g transform="matrix(1,0,0,1,255.6739959716797,255.95098876953125)" opacity="1" style="display: block;"><g opacity="1" transform="matrix(1,0,0,1,0,0)"><path stroke-linecap="round" stroke-linejoin="round" fill-opacity="0" stroke="rgb(255,255,255)" stroke-opacity="1" stroke-width="20" d=" M97.5,-5.269000053405762 C96.01799774169922,23.297000885009766 86.57499694824219,46.12200164794922 71.72599792480469,62.50199890136719"></path></g></g><g transform="matrix(1,0,0,1,255.6739959716797,255.95098876953125)" opacity="1" style="display: block;"><g opacity="1" transform="matrix(1,0,0,1,0,0)"><path fill="rgb(255,255,255)" fill-opacity="1" d=" M19.67099952697754,80.6729965209961 C25.69099998474121,79.29100036621094 31.475000381469727,77.28800201416016 36.95000076293945,74.73500061035156 C36.95000076293945,74.73500061035156 51.76300048828125,89.5459976196289 51.76300048828125,89.5459976196289 C43.25400161743164,94.23200225830078 34.04199981689453,97.7979965209961 24.325000762939453,100.0469970703125 C24.325000762939453,100.0469970703125 19.67099952697754,80.6729965209961 19.67099952697754,80.6729965209961z"></path></g></g><g transform="matrix(1,0,0,1,255.6739959716797,255.95098876953125)" opacity="1" style="display: block;"><g opacity="1" transform="matrix(1,0,0,1,0,0)"><path stroke-linecap="round" stroke-linejoin="round" fill-opacity="0" stroke="rgb(255,255,255)" stroke-opacity="1" stroke-width="20" d=" M-127.63600158691406,-133.30999755859375 C-127.63600158691406,-133.30999755859375 127.26000213623047,121.76399993896484 127.26000213623047,121.76399993896484"></path></g></g></g></g></svg>