<svg xmlns="http://www.w3.org/2000/svg" xmlns:xlink="http://www.w3.org/1999/xlink" fill="none" height="67"
  viewBox="0 0 90 67" width="90" class="d-block mb-3">
  <linearGradient id="a" gradientUnits="userSpaceOnUse" x1=".324219" x2="53.5793" y1=".875977" y2="3.6836">
    <stop offset="0" stop-color="#644bff"></stop>
    <stop offset="1" stop-color="#c29eff"></stop>
  </linearGradient>
  <path clip-rule="evenodd"
    d="m33.0938 31.456v-1h2.0744v1.9675h-1v-.9675zm1.0744 3.8701h1v1.9351h-1zm0 4.8378h1v1.935h-1zm0 4.8377h1v1.9351h-1zm0 4.8377h1v1.9351h-1zm0 4.8377h1v1.9351h-1zm0 4.8377h1v1.9351h-1zm0 4.8377h1v1.9676h-1.9384v-1h.9384zm-31.90558.9676h-.9384v-.9501h-1.000001v1.9501h1.938401zm-.9384-32.302v-.95c0-.3279.00414-.6534.0124-.9763l-.999671-.0256c-.008478.3316-.01273.6656-.01273 1.0019v.95zm.20336-4.8278-.994248-.107c.072344-.6717.163286-1.3325.272558-1.9822l.98615.1659c-.10593.6298-.19419 1.271-.26446 1.9233zm.88168-4.7645-.96572-.2596c.17571-.6537.37162-1.2946.58738-1.9224l.94571.325c-.20825.6059-.3975 1.225-.56737 1.857zm1.6586-4.553-.90512-.4251c.28734-.6118.59555-1.2088.92415-1.7909l.87083.4916c-.31629.5603-.61306 1.1351-.88986 1.7244zm2.4616-4.1719-.80922-.5875c.3952-.5443.81053-1.0727 1.24547-1.585l.76232.6472c-.41864.4931-.81832 1.0016-1.19857 1.5253zm3.20252-3.6339-.68562-.7279c.48655-.45828.99134-.90039 1.51374-1.32624l.6318.77511c-.5042.41103-.991.83743-1.45992 1.27903zm3.80622-2.99869-.55-.8352c.5543-.36494 1.1242-.71446 1.7093-1.04849l.4957.86844c-.567.32373-1.1188.66219-1.655 1.01525zm4.2434-2.34251-.4171-.90886c.5993-.27504 1.2118-.53589 1.837-.78247l.3669.93027c-.6087.24005-1.2044.49377-1.7868.76106zm4.5303-1.72344-.2958-.95524c.6266-.19403 1.2641-.3752 1.9122-.54343l.2512.96792c-.6335.16444-1.2561.34139-1.8676.53075zm4.7048-1.16959-.1889-.982c.6414-.12337 1.2919-.23511 1.9512-.33518l.1501.98868c-.6466.09814-1.2842.20767-1.9124.3285zm4.8047-.68561-.0957-.9954c.6486-.06239 1.3047-.11424 1.9683-.15549l.062.99807c-.6525.04057-1.2974.09153-1.9346.15282zm-30.49718 33.72114h-1.000001v1.9001h1.000001zm0 4.7503h-1.000001v1.9001h1.000001zm0 4.7503h-1.000001v1.9001h1.000001zm0 4.7503h-1.000001v1.9001h1.000001zm0 4.7502h-1.000001v1.9002h1.000001zm0 4.7503h-1.000001v1.9001h1.000001zm3.7536 5.7004v1h1.8768v-1zm4.692 0v1h1.87678v-1zm4.69198 0v1h1.8768v-1zm4.692 0v1h1.8768v-1zm4.692 0v1h1.8768v-1zm4.692 0v1h1.8768v-1zm1.3328-33.864v-1h-2.1488v1zm-5.372 0v-1h-2.1488v1zm-5.372 0v-1h-.0744v-.224c0-.3121.0061-.6205.0185-.9251l-.9992-.0404c-.0129.3185-.0193.6404-.0193.9655v1.224zm-.74-5.0658.9832.1827c.1128-.6072.2562-1.194.4312-1.7594l-.9554-.2956c-.187.6046-.3395 1.2293-.459 1.8723zm1.5847-4.5344.8748.4844c.2877-.5196.6121-1.015.9748-1.4851l-.7917-.6109c-.3943.511-.7463 1.0489-1.0579 1.6116zm3.0728-3.6821.6339.7734c.4484-.3675.9344-.7127 1.4601-1.0339l-.5214-.8534c-.5639.3446-1.0876.7164-1.5726 1.1139zm4.1654-2.3901.3644.9313c.5474-.2142 1.1264-.4091 1.738-.5833l-.2739-.9618c-.6407.1825-1.2499.3874-1.8285.6138zm4.6547-1.2369.1608.987c.5937-.0968 1.2116-.1775 1.8544-.2413l-.0988-.9951c-.6625.0658-1.3011.1491-1.9164.2494zm4.8021-.4201c.3186-.0071.6419-.0106.9699-.0106v-1.224h1v2.224h-1c-.3208 0-.6367.0034-.9478.0103zm.9699-4.90662h1v-2.448h-1zm0-6.12h1v-2.224003h-1c-.3318 0-.662.00246-.9906.007377l.0149.992626h-.0243v.00763c.0081-.00012.0163-.00025.0244-.00037.1581-.00237.3167-.00415.4756-.00536.1663-.00127.3329-.0019.5-.0019zm46.4712 28.35602v-1h2.0608v1.9675h-1v-.9675zm1.0608 3.8701h1v1.9351h-1zm0 4.8378h1v1.935h-1zm0 4.8377h1v1.9351h-1zm0 4.8377h1v1.9351h-1zm0 4.8377h1v1.9351h-1zm0 4.8377h1v1.9351h-1zm0 4.8377h1v1.9676h-1.9384v-1h.9384zm-31.9056.9676h-.9384v-.9501h-1v1.9501h1.9384zm-.9384-32.302v-.95c0-.3279.0042-.6534.0124-.9763l-.9996-.0256c-.0085.3316-.0128.6656-.0128 1.0019v.95zm.2034-4.8278-.9943-.107c.0724-.6717.1633-1.3325.2726-1.9822l.9861.1659c-.1059.6298-.1941 1.271-.2644 1.9233zm.8817-4.7645-.9658-.2596c.1758-.6537.3717-1.2946.5874-1.9224l.9457.325c-.2082.6059-.3975 1.225-.5673 1.857zm1.6586-4.553-.9052-.4251c.2874-.6118.5956-1.2088.9242-1.7909l.8708.4916c-.3163.5603-.613 1.1351-.8898 1.7244zm2.4616-4.1719-.8093-.5875c.3952-.5443.8106-1.0727 1.2455-1.585l.7623.6472c-.4186.4931-.8183 1.0016-1.1985 1.5253zm3.2025-3.6339-.6856-.7279c.4865-.45828.9913-.90039 1.5137-1.32624l.6318.77511c-.5042.41103-.991.83743-1.4599 1.27903zm3.8062-2.99869-.55-.8352c.5543-.36494 1.1242-.71446 1.7093-1.04849l.4958.86844c-.5671.32373-1.1189.66219-1.6551 1.01525zm4.2434-2.34251-.4171-.90886c.5993-.27504 1.2118-.53589 1.837-.78247l.3669.93027c-.6087.24005-1.2044.49377-1.7868.76106zm4.5303-1.72344-.2958-.95524c.6266-.19403 1.2641-.3752 1.9122-.54343l.2512.96792c-.6335.16444-1.2561.34139-1.8676.53075zm4.7048-1.16959-.1889-.982c.6414-.12337 1.2919-.23511 1.9512-.33518l.1501.98868c-.6466.09814-1.2842.20767-1.9124.3285zm4.8047-.68561-.0957-.9954c.6486-.06239 1.3047-.11424 1.9683-.15549l.062.99807c-.6525.04057-1.2974.09153-1.9346.15282zm-30.4972 33.72114h-1v1.9001h1zm0 4.7503h-1v1.9001h1zm0 4.7503h-1v1.9001h1zm0 4.7503h-1v1.9001h1zm0 4.7502h-1v1.9002h1zm0 4.7503h-1v1.9001h1zm3.7536 5.7004v1h1.8768v-1zm4.692 0v1h1.8768v-1zm4.692 0v1h1.8768v-1zm4.692 0v1h1.8768v-1zm4.692 0v1h1.8768v-1zm4.692 0v1h1.8768v-1zm1.3872-33.864v-1h-2.1216v1zm-5.304 0v-1h-2.1216v1zm-5.304 0v-1h-.0608v-.224c0-.3111.0059-.6185.0176-.9222l-.9992-.0388c-.0123.3171-.0184.6375-.0184.961v1.224zm-.7406-5.0492.9843.1762c.1086-.6062.2467-1.1922.4156-1.7567l-.958-.2866c-.1804.603-.3272 1.226-.4419 1.8671zm1.5336-4.5286.8804.4741c.2806-.521.5974-1.0175.9523-1.4885l-.7987-.6018c-.3861.5125-.7301 1.0519-1.034 1.6162zm3.0182-3.6969.6404.768c.4424-.3689.9227-.7154 1.4432-1.0376l-.5265-.8502c-.5592.3462-1.0777.72-1.5571 1.1198zm4.1322-2.4007.3669.9302c.5431-.2142 1.1183-.409 1.7268-.5832l-.2751-.9614c-.638.1826-1.2438.3877-1.8186.6144zm4.6308-1.2363.161.9869c.5904-.0963 1.2053-.1766 1.8455-.2401l-.0987-.9951c-.66.0654-1.2957.1484-1.9078.2483zm4.7795-.4178c.317-.007.6389-.0105.9655-.0105v-1.224h1v2.224h-1c-.3194 0-.6339.0034-.9435.0103zm.9655-4.90652h1v-2.448h-1zm0-6.12h1v-2.224003h-1c-.3318 0-.662.00246-.9906.007377l.0149.992626h-.0243v.00763c.0081-.00012.0163-.00025.0244-.00037.1581-.00237.3167-.00415.4756-.00536.1663-.00127.3329-.0019.5-.0019z"
    fill="url(#a)" fill-rule="evenodd"></path>
</svg>