<?xml version="1.0" encoding="UTF-8"?><svg fill="none" viewBox="0 0 272 17" xmlns="http://www.w3.org/2000/svg"><g filter="url(#b)"><mask id="a" x="112.5" y="-0.00128174" width="47" height="15" fill="black" maskUnits="userSpaceOnUse"><rect x="112.5" y="-.0012817" width="47" height="15" fill="#fff"/><path d="m112.5 13.997c1.712 0 3.424 0.0085 5.137-0.01 1.639-0.018 3.473-0.0435 5.068-0.645 1.723-0.6501 2.864-1.7866 4.012-3.1241 0.826-0.96203 2.449-3.0146 3.239-4.0056 0.647-0.81251 1.913-2.4186 2.605-3.1956 0.87-0.97753 1.945-2.0165 3.439-2.0165 1.495 0 2.57 1.039 3.439 2.0155 0.692 0.77651 1.958 2.3836 2.605 3.1956 0.789 0.99102 2.412 3.0436 3.239 4.0056 1.15 1.3375 2.289 2.474 4.011 3.1241 1.596 0.6 3.431 0.627 5.069 0.645 1.713 0.0185 3.425 0.01 5.137 0.01" clip-rule="evenodd" fill-rule="evenodd"/></mask><path d="m112.5 13.997c1.712 0 3.424 0.0085 5.137-0.01 1.639-0.018 3.473-0.0435 5.068-0.645 1.723-0.6501 2.864-1.7866 4.012-3.1241 0.826-0.96203 2.449-3.0146 3.239-4.0056 0.647-0.81251 1.913-2.4186 2.605-3.1956 0.87-0.97753 1.945-2.0165 3.439-2.0165 1.495 0 2.57 1.039 3.439 2.0155 0.692 0.77651 1.958 2.3836 2.605 3.1956 0.789 0.99102 2.412 3.0436 3.239 4.0056 1.15 1.3375 2.289 2.474 4.011 3.1241 1.596 0.6 3.431 0.627 5.069 0.645 1.713 0.0185 3.425 0.01 5.137 0.01" clip-rule="evenodd" fill="#161A20" fill-rule="evenodd"/><path d="m117.64 13.987 0.011 0.9999-0.011-0.9999zm5.068-0.645 0.353 0.9356-0.353-0.9356zm4.012-3.1241-0.759-0.6512v-3.6e-4l0.759 0.65156zm3.239-4.0056 0.783 0.62281-1e-3 6.6e-4 -0.782-0.62347zm2.605-3.1956-0.748-0.6647 1e-3 -2.4e-4 0.747 0.66494zm6.878-1e-3 0.747-0.6651v1.6e-4l-0.747 0.66494zm2.605 3.1956 0.782-0.62334v3.6e-4l-0.782 0.62298zm3.239 4.0056-0.758 0.6518 0.758-0.6518zm4.011 3.1241-0.352 0.936-1e-3 -4e-4 0.353-0.9356zm5.069 0.645-0.011 0.9999 0.011-0.9999zm-41.863-0.989c1.719 0 3.421 0.0084 5.126-0.01l0.022 1.9999c-1.72 0.0186-3.442 0.0101-5.148 0.0101v-2zm5.126-0.01c1.673-0.0183 3.325-0.0522 4.727-0.5807l0.705 1.8713c-1.788 0.6745-3.805 0.6917-5.41 0.7093l-0.022-1.9999zm4.726-0.5807c1.48-0.5581 2.485-1.5332 3.606-2.8396l1.518 1.3024c-1.175 1.3687-2.451 2.6666-4.418 3.4085l-0.706-1.8713zm3.606-2.84c0.811-0.94386 2.416-2.9738 3.216-3.9775l1.564 1.2469c-0.78 0.97837-2.421 3.0535-3.263 4.0336l-1.517-1.3031zm3.216-3.9768c0.634-0.79595 1.924-2.4338 2.639-3.2374l1.495 1.3294c-0.668 0.75041-1.909 2.3246-2.569 3.1537l-1.565-1.2456zm2.64-3.2377c0.86-0.96617 2.204-2.3516 4.186-2.3516v2c-1.005 0-1.812 0.69261-2.693 1.6815l-1.493-1.3299zm4.186-2.3516c1.983 0 3.327 1.3855 4.186 2.3504l-1.493 1.3302c-0.88-0.98809-1.687-1.6806-2.693-1.6806v-2zm4.186 2.3506c0.715 0.80308 2.007 2.4428 2.64 3.2372l-1.564 1.2467c-0.661-0.82972-1.902-2.404-2.569-3.154l1.493-1.3299zm2.64 3.2375c0.799 1.0031 2.405 3.0333 3.216 3.9768l-1.517 1.3036c-0.843-0.98057-2.483-3.0554-3.263-4.0344l1.564-1.246zm3.216 3.9767c1.123 1.3076 2.126 2.2824 3.605 2.8404l-0.706 1.8712c-1.966-0.7421-3.241-2.0403-4.416-3.4079l1.517-1.3036zm3.604 2.84c1.403 0.5275 3.057 0.5627 4.728 0.581l-0.022 1.9999c-1.606-0.0176-3.622-0.0364-5.41-0.7089l0.704-1.872zm4.727 0.581c1.706 0.0184 3.408 0.01 5.127 0.01v2c-1.706 0-3.428 0.0085-5.148-0.0101l0.021-1.9999z" fill="#5D6A81" fill-opacity=".2" mask="url(#a)"/></g><rect x="112.5" y="13.999" width="47" height="3" fill="#161A20"/><defs><filter id="b" x="-17.5" y="-130" width="307" height="275" color-interpolation-filters="sRGB" filterUnits="userSpaceOnUse"><feFlood flood-opacity="0" result="BackgroundImageFix"/><feGaussianBlur in="BackgroundImageFix" stdDeviation="65"/><feComposite in2="SourceAlpha" operator="in" result="effect1_backgroundBlur_26_10"/><feBlend in="SourceGraphic" in2="effect1_backgroundBlur_26_10" result="shape"/></filter></defs></svg>