<svg xmlns="http://www.w3.org/2000/svg" id="Livello_1" x="0" y="0" version="1.1" viewBox="0 0 983 983"
     style="enable-background:new 0 0 983 983" xml:space="preserve"><style type="text/css">.st0{fill:none;stroke:#fff;stroke-width:60;stroke-linecap:round;stroke-linejoin:round}.st1{fill:url(#SVGID_1_)}</style><g><g><circle cx="377" cy="178" r="15" class="st0"/><circle cx="606.4" cy="795.9" r="23.3" class="st0"/><g><g><path d="M724.8,289.9c5.6,14.4,14,26.8,25.6,36.7c11.5,9.9,24.5,17.1,39.7,19.8v3.4c0,55.2-0.1,110.4,0.1,165.6 c0,7,1.9,13.7,5.6,19.8c4.3,7.2,10,12.8,17.1,17.1c6,3.7,18.9,6.8,25.8,5.7c4.7-0.7,9.5-1.7,13.9-3.4 c7.1-2.7,13.1-7.3,17.9-13.3c1.1-1.5,2.2-3,3.2-4.5c3.7-5.3,5.5-11.2,5.5-17.5c0-47.1,0-94.2,0-141.4V375l0.4-0.2 c0.3,0.7,0.7,1.4,1,2.2c4.7,11.9,8.2,24.2,11.1,36.7c3,13,5.4,26.1,7,39.4c1.9,15.9,2.9,31.9,2.3,47.9 c-0.4,11.4-1.2,22.7-2.6,33.9c-4,30.5-11.2,60.2-24.5,88.1c-8.2,17.2-20.4,31.1-35.3,42.7c-9.5,7.4-20.6,11.9-32.1,15.3 c-11.5,3.4-23.2,5.3-35,6.8s-23.7,1.8-35.7,1.8c-74.6-0.1-149.3,0-223.9,0c-1.4,0-2.9,0.1-4.3,0.5c-5.6,1.5-9.3,6.4-9.2,11.7 c0.1,5.5,4.3,10.6,9.9,11.8c1.2,0.3,2.5,0.4,3.8,0.4c53.2,0,106.4,0.1,159.6-0.1c9.2,0,15.9,6.2,16,15.8 c0,9.9,0.1,19.8,0.1,29.8c0,19.5-0.1,39-0.1,58.6c0,10.7-2.7,20.5-9.1,29.2c-3.4,4.6-7.4,8.6-11.9,12.1 c-9.2,7.2-19.5,12.2-30.3,16.4c-14.4,5.5-29.3,9.2-44.4,12c-16.6,3.1-33.3,5-50.2,6.4c-26.2,2.1-52.4,2.6-78.6,2.3 c-6.9-0.1-13.8,0.1-20.6,0c-24.5-0.5-48.4-4.3-71.4-13c-16.5-6.2-31.6-14.8-44.5-26.8c-14.4-13.4-24.2-29.5-28.4-48.8 c-1.4-6.5-2.2-13.1-2.2-19.7c0-69.7,0-139.4,0-209c0-18.6,5.5-35.3,17.4-49.7c12.2-14.9,28.1-23.5,47.1-26.1 c4.3-0.6,8.8-0.7,13.1-0.8c9.4-0.1,18.9,0,28.3,0c73.4,0,146.7,0,220.1,0c16.3,0,31.7-3.8,45.9-11.8 c20.8-11.7,34.3-29.1,40.5-52.1c2.8-10.3,4.6-20.8,5.8-31.3c2.3-19.4,3.1-38.9,2.7-58.4c-0.3-12.8-1.2-25.6-2.4-38.3 c-0.1-1.2-0.4-2.4-0.6-3.5C712.7,299,718.3,291.6,724.8,289.9L724.8,289.9z M638.8,799.6c0-19-15.7-34.5-34.6-34.4 c-18.9,0.1-34.3,15.6-34.3,34.5c0,19,15.5,34.5,34.5,34.5C623.3,834.2,638.9,818.6,638.8,799.6L638.8,799.6z" class="st0"/><path d="M724.8,289.9c5.6,14.4,14,26.8,25.6,36.7c11.5,9.9,24.5,17.1,39.7,19.8v3.4c0,55.2-0.1,110.4,0.1,165.6 c0,7,1.9,13.7,5.6,19.8c4.3,7.2,10,12.8,17.1,17.1c5.2,3.2,15.4,5.9,22.6,5.9c1.2,0,2.2-0.1,3.2-0.2c4.7-0.7,9.5-1.7,13.9-3.4 c7.1-2.7,13.1-7.3,17.9-13.3c1.1-1.5,2.2-3,3.2-4.5c3.7-5.3,5.5-11.2,5.5-17.5c0-47.1,0-94.2,0-141.4V375l0.4-0.2 c0.3,0.7,0.7,1.4,1,2.2c4.7,11.9,8.2,24.2,11.1,36.7c3,13,5.4,26.1,7,39.4c1.9,15.9,2.9,31.9,2.3,47.9 c-0.4,11.4-1.2,22.7-2.6,33.9c-4,30.5-11.2,60.2-24.5,88.1c-8.2,17.2-20.4,31.1-35.3,42.7c-9.5,7.4-20.6,11.9-32.1,15.3 s-23.2,5.3-35,6.8c-11.8,1.5-23.7,1.8-35.7,1.8c-24.9,0-49.7,0-74.6,0c-49.8,0-99.5,0-149.3,0c-1.4,0-2.9,0.1-4.3,0.5 c-5.6,1.5-9.3,6.4-9.2,11.7c0.1,5.5,4.3,10.6,9.9,11.8c1.2,0.3,2.5,0.4,3.8,0.4c26.6,0,53.2,0,79.8,0c26.6,0,53.2,0,79.8-0.1 c9.2,0,15.9,6.2,16,15.8c0,9.9,0.1,19.8,0.1,29.8c0,19.5-0.1,39-0.1,58.6c0,10.7-2.7,20.5-9.1,29.2c-3.4,4.6-7.4,8.6-11.9,12.1 c-9.2,7.2-19.5,12.2-30.3,16.4c-14.4,5.5-29.3,9.2-44.4,12c-16.6,3.1-33.3,5-50.2,6.4c-21.7,1.7-43.4,2.4-65,2.4 c-4.5,0-9,0-13.6-0.1c-1.5,0-2.9,0-4.4,0c-4,0-8,0.1-11.9,0.1c-1.4,0-2.9,0-4.3,0c-24.5-0.5-48.4-4.3-71.4-13 c-16.5-6.2-31.6-14.8-44.5-26.8c-14.4-13.4-24.2-29.5-28.4-48.8c-1.4-6.5-2.2-13.1-2.2-19.7c0-69.7,0-139.4,0-209 c0-18.6,5.5-35.3,17.4-49.7c12.2-14.9,28.1-23.5,47.1-26.1c4.3-0.6,8.8-0.7,13.1-0.8c3.1,0,6.3,0,9.4,0c6.3,0,12.6,0,18.9,0 c73.4,0,146.7,0,220.1,0c16.3,0,31.7-3.8,45.9-11.8c20.8-11.7,34.3-29.1,40.5-52.1c2.8-10.3,4.6-20.8,5.8-31.3 c2.3-19.4,3.1-38.9,2.7-58.4c-0.3-12.8-1.2-25.6-2.4-38.3c-0.1-1.2-0.4-2.4-0.6-3.5C712.7,299,718.3,291.6,724.8,289.9 M604.4,834.2c18.9,0,34.5-15.6,34.4-34.6c0-18.9-15.6-34.4-34.4-34.4c-0.1,0-0.1,0-0.2,0c-18.9,0.1-34.3,15.6-34.3,34.5 C569.9,818.7,585.4,834.2,604.4,834.2 M725.4,288.7l-0.9,0.2c-6.7,1.7-13,9.3-11.5,18.4c0.1,0.3,0.1,0.7,0.2,1 c0.2,0.8,0.3,1.6,0.4,2.4c1.3,14.2,2.1,26.7,2.4,38.2c0.4,20.1-0.5,39.7-2.7,58.3c-1.3,11.5-3.2,21.7-5.8,31.2 c-6.1,22.7-19.6,40-40,51.5c-13.7,7.7-29,11.7-45.4,11.7H402c-3.1,0-6.3,0-9.4,0c-3.2,0-6.3,0-9.5,0c-3.5,0-6.6,0-9.4,0l-0.1,0 c-4.3,0.1-8.8,0.2-13.1,0.8c-19.5,2.7-35.5,11.6-47.7,26.5C301,543,295.1,560,295.1,579.2v209c0,6.4,0.7,13.1,2.2,19.9 c4.1,18.8,13.8,35.4,28.7,49.3c12.3,11.5,27,20.3,44.8,27c21.8,8.3,45.3,12.5,71.7,13.1c1.4,0,2.9,0,4.3,0c2,0,4,0,5.9,0 c2,0,4,0,6,0c1.5,0,2.9,0,4.4,0c4.6,0.1,9.2,0.1,13.6,0.1c23.8,0,45.1-0.8,65.1-2.4c19.6-1.6,35.6-3.7,50.3-6.4 c17-3.2,31.6-7.1,44.6-12c12.8-5,22.5-10.2,30.6-16.5c4.7-3.6,8.8-7.8,12.1-12.3c6.3-8.5,9.3-18.2,9.3-29.8 c0-9.8,0-19.8,0.1-29.4c0-9.6,0-19.5,0-29.2c0-5,0-10.1-0.1-15c0-4.9,0-9.9,0-14.8c-0.1-9.9-7.1-16.8-17-16.8 c-23,0.1-47.6,0.1-79.8,0.1c-13.3,0-26.6,0-39.9,0c-13.3,0-26.6,0-39.9,0c-1.4,0-2.6-0.1-3.6-0.4c-5.1-1.1-9.1-5.8-9.1-10.8 c-0.1-5,3.4-9.4,8.5-10.7c1.1-0.3,2.4-0.5,4-0.5c24.9,0,49.7,0,74.6,0c24.9,0,49.8,0,74.7,0c27.9,0,52.3,0,74.6,0 c10.7,0,23.3-0.2,35.8-1.8c10.4-1.3,22.8-3.2,35.2-6.8c13.8-4.1,24.1-9,32.4-15.5c16.1-12.5,27.8-26.6,35.6-43.1 c12.1-25.3,20.1-54.2,24.6-88.4c1.3-10.6,2.2-21.7,2.6-34c0.6-14.7-0.2-30.4-2.3-48.1c-1.5-12.8-3.8-25.7-7-39.5 c-3.3-14.1-6.9-26.1-11.1-36.8c-0.2-0.5-0.4-1-0.6-1.4c-0.1-0.3-0.3-0.5-0.4-0.8l-0.4-1l-0.9,0.5l-0.4,0.2l-0.6,0.3v0.6v2.9 v141.4c0,6.2-1.8,11.9-5.3,16.9c-1,1.5-2.1,3-3.2,4.5c-4.8,6-10.7,10.4-17.5,13c-3.8,1.5-8.1,2.5-13.7,3.3 c-0.9,0.1-1.9,0.2-3,0.2c-6.9,0-17-2.6-22.1-5.8c-7.1-4.3-12.6-9.8-16.8-16.8c-3.6-6-5.5-12.5-5.5-19.3 c-0.1-41.4-0.1-83.5-0.1-124.2c0-13.8,0-27.6,0-41.4v-3.4v-0.8l-0.8-0.1c-14-2.5-26.8-8.9-39.2-19.6 c-11.1-9.5-19.6-21.7-25.3-36.3L725.4,288.7L725.4,288.7z M604.4,833.2c-18.5,0-33.5-15-33.5-33.5c0-18.4,14.9-33.4,33.3-33.5 l0.2,0c18.4,0,33.4,15,33.4,33.4c0,8.9-3.4,17.3-9.8,23.7C621.7,829.7,613.3,833.2,604.4,833.2L604.4,833.2z" class="st0"/></g></g><g><g><path d="M191.5,346.7c30.1-7.2,50.8-25.3,63.9-53c0.8,0,1.7,0,2.7,0c71,0,141.9,0,212.9,0c1.9,0,3.9-0.2,5.7-0.8 c5.6-1.8,9.3-7.2,8.6-12.6c-0.7-5.6-5.7-10.5-11.4-11c-0.9-0.1-1.8-0.1-2.6-0.1c-53.4,0-106.7,0-160.1,0 c-8.6,0-14.8-6.1-15-14.8c-0.2-11-0.2-22.1-0.2-33.1c0-18.8,0.3-37.6,0.1-56.4c-0.1-15.1,5.7-27.5,16.7-37.6 c6.8-6.3,14.7-11.1,23-15.1c12.5-6,25.7-10.1,39.2-13.4c14.9-3.6,29.9-6,45.1-7.8c34.1-4,68.3-5,102.5-4.4c1.8,0,3.7,0,5.5-0.1 c27.2-0.7,54,2.4,79.8,11.3c17.4,6,33.4,14.5,47.3,26.8c14,12.4,24,27.4,29,45.5c2.3,8.4,3.5,17.1,3.5,25.8 c0,69.2,0.1,138.4,0,207.6c0,21.6-7.2,40.5-22.7,55.8c-11.1,11-24.6,17.6-40.1,20c-4.2,0.6-8.4,1-12.7,1 c-83.7,0-167.4,0-251,0.1c-25.4,0-47.3,9.1-65.4,27c-9.4,9.3-15.4,20.5-19.3,33c-3,9.4-4.9,19-6.2,28.8 c-3.4,24.1-4.3,48.3-3.2,72.5c0.4,10.6,1.5,21.2,2.3,31.8c0.1,1.4,0.5,2.8,0.6,4.3c0.3,7.5-4.5,13.9-11.8,15.8 c-1.2,0.3-2.5,0.4-3.8,0.4c-18,0.1-35.7-2.3-53.1-7.3c-20.7-5.9-39.9-15-57.6-27.3c-15.7-10.9-27.5-25-35.7-42.2 c-5.9-12.3-10.2-25.2-13.7-38.3c-4.1-15.6-7.2-31.5-9.2-47.5c-2.4-19.1-3.1-38.2-2.1-57.5c1.2-23.4,4.6-46.5,10.7-69.1 c2.2-8.2,5-16.3,7.6-24.5c0.2-0.5,0.4-1,1-1.6c0,0.8,0.1,1.6,0.1,2.4c0,20.8,0,41.6,0,62.4c0,25.4,0,50.7,0,76.1 c0,6,1.8,11.5,5,16.5c4,6.2,9,11.4,15.3,15.3c3.1,1.9,6.3,3.5,9.8,4.3c2.4,0.6,4.8,1.2,7.2,1.7c4.5,1,9,1,13.6-0.1 c1.7-0.4,3.4-0.9,5.1-1.2c8.6-1.7,15.4-6.6,21.3-12.7c3.4-3.6,6.4-7.6,8.2-12.3c1.3-3.5,2.2-7.2,3.1-10.8 c0.4-1.5,0.5-3.2,0.5-4.7c0-55.3,0-110.6,0-165.8C191.5,348.8,191.5,347.8,191.5,346.7L191.5,346.7z M345,183.3 c0,19.1,15.3,34.5,34.4,34.6c18.9,0.1,34.3-15.4,34.5-34.2c0.2-17.9-14-34.5-34.3-34.7C360.5,148.7,345.1,164.2,345,183.3 L345,183.3z" class="st0"/><path d="M535.4,86.4c24.7,0,49,3.3,72.5,11.4c17.4,6,33.4,14.5,47.3,26.8c14,12.4,24,27.4,29,45.5 c2.3,8.4,3.5,17.1,3.5,25.8c0,69.2,0.1,138.4,0,207.6c0,21.6-7.2,40.5-22.7,55.8c-11.1,11-24.6,17.6-40.1,20 c-4.2,0.6-8.4,1-12.7,1c-83.7,0-167.4,0-251,0.1c-25.4,0-47.3,9.1-65.4,27c-9.4,9.3-15.4,20.5-19.3,33c-3,9.4-4.9,19-6.2,28.8 c-3.4,24.1-4.3,48.3-3.2,72.5c0.4,10.6,1.5,21.2,2.3,31.8c0.1,1.4,0.5,2.8,0.6,4.3c0.3,7.5-4.5,13.9-11.8,15.8 c-1.2,0.3-2.5,0.4-3.8,0.4c-0.4,0-0.7,0-1.1,0c-17.6,0-35-2.4-52-7.3c-20.7-5.9-39.9-15-57.6-27.3c-15.7-10.9-27.5-25-35.7-42.2 c-5.9-12.3-10.2-25.2-13.7-38.3c-4.1-15.6-7.2-31.5-9.2-47.5c-2.4-19.1-3.1-38.2-2.1-57.5c1.2-23.4,4.6-46.5,10.7-69.1 c2.2-8.2,5-16.3,7.6-24.5c0.2-0.5,0.4-1,1-1.6c0,0.8,0.1,1.6,0.1,2.4c0,20.8,0,41.6,0,62.4c0,25.4,0,50.7,0,76.1 c0,6,1.8,11.5,5,16.5c4,6.2,9,11.4,15.3,15.3c3.1,1.9,6.3,3.5,9.8,4.3c2.4,0.6,4.8,1.2,7.2,1.7c2.2,0.5,4.4,0.7,6.6,0.7 c2.3,0,4.6-0.3,7-0.8c1.7-0.4,3.4-0.9,5.1-1.2c8.6-1.7,15.4-6.6,21.3-12.7c3.4-3.6,6.4-7.6,8.2-12.3c1.3-3.5,2.2-7.2,3.1-10.8 c0.4-1.5,0.5-3.2,0.5-4.7c0-55.3,0-110.6,0-165.8c0-1,0-2,0-3.1c30.1-7.2,50.8-25.3,63.9-53c0.8,0,1.7,0,2.7,0 c71,0,141.9,0,212.9,0c1.9,0,3.9-0.2,5.7-0.8c5.6-1.8,9.3-7.2,8.6-12.6c-0.7-5.6-5.7-10.5-11.4-11c-0.9-0.1-1.8-0.1-2.6-0.1 c-53.4,0-106.7,0-160.1,0c-8.6,0-14.8-6.1-15-14.8c-0.2-11-0.2-22.1-0.2-33.1c0-18.8,0.3-37.6,0.1-56.4 c-0.1-15.1,5.7-27.5,16.7-37.6c6.8-6.3,14.7-11.1,23-15.1c12.5-6,25.7-10.1,39.2-13.4c14.9-3.6,29.9-6,45.1-7.8 c28.2-3.3,56.4-4.6,84.6-4.6c6,0,11.9,0.1,17.9,0.2c1.8,0,3.7,0,5.5-0.1C530.5,86.4,533,86.4,535.4,86.4 M379.6,217.9 c18.8,0,34.1-15.5,34.3-34.2c0.2-17.9-14-34.5-34.3-34.7c-0.2,0-0.4,0-0.5,0c-18.8,0-34,15.4-34.1,34.3 c0,19.1,15.3,34.5,34.4,34.6C379.5,217.9,379.5,217.9,379.6,217.9 M535.4,85.4c-2.4,0-4.9,0-7.4,0.1c-1.8,0.1-3.7,0.1-5.5,0.1 c-6.1-0.1-12.1-0.2-17.9-0.2c-30.8,0-58.5,1.5-84.7,4.6c-17,2-31.7,4.6-45.2,7.8c-15.8,3.9-28.3,8.1-39.4,13.5 c-9.5,4.6-17.1,9.6-23.2,15.3c-11.4,10.5-17.1,23.4-17,38.3c0.1,11.7,0.1,23.7,0,35.2c0,6.9-0.1,14.1-0.1,21.2 c0,10.9,0,22.1,0.2,33.1c0.2,9.3,6.8,15.8,16,15.8h160.1c0.8,0,1.6,0,2.5,0.1c5.2,0.5,9.9,5,10.5,10.1c0.6,4.9-2.8,9.9-7.9,11.5 c-1.5,0.5-3.3,0.8-5.4,0.8H258.1h-2.7h-0.6l-0.3,0.6c-13.4,28.3-34.1,45.5-63.2,52.5l-0.8,0.2v0.8v3.1v165.8 c0,1.8-0.2,3.3-0.5,4.4l-0.1,0.6c-0.8,3.4-1.7,6.9-2.9,10.1c-1.5,4-4.1,7.8-8,12c-6.8,7-13.4,10.9-20.8,12.4 c-1.2,0.2-2.3,0.5-3.5,0.8c-0.6,0.1-1.1,0.3-1.7,0.4c-2.3,0.5-4.5,0.8-6.8,0.8c-2.1,0-4.3-0.2-6.4-0.7c-2.4-0.5-4.8-1.1-7.2-1.7 c-3-0.7-5.9-2-9.5-4.2c-5.9-3.7-10.9-8.6-15-15c-3.2-5-4.8-10.4-4.8-16v-76.1v-62.4c0-0.4,0-0.9-0.1-1.3c0-0.4,0-0.8,0-1.1v-2.4 l-1.7,1.7c-0.7,0.7-1,1.4-1.2,1.9l0,0l0,0c-0.7,2.2-1.4,4.4-2.1,6.6c-1.9,5.9-3.9,11.9-5.5,18c-5.9,21.8-9.5,45.1-10.7,69.3 c-1,19.2-0.3,38.6,2.1,57.7c2,15.9,5.1,31.9,9.2,47.6c4,14.9,8.5,27.4,13.8,38.5c8.3,17.4,20.4,31.8,36,42.6 c17.7,12.3,37.2,21.5,57.9,27.4c17,4.9,34.5,7.3,52.3,7.3c0.4,0,0.7,0,1.1,0c1.6,0,2.9-0.1,4-0.4c7.8-2,12.9-8.8,12.6-16.8 c-0.1-0.9-0.2-1.6-0.3-2.4c-0.1-0.7-0.2-1.3-0.3-2c-0.2-3.2-0.5-6.4-0.8-9.6c-0.6-7.3-1.2-14.8-1.5-22.2 c-1.1-24.9-0.1-49.3,3.2-72.3c1.4-10.7,3.4-20.1,6.2-28.6c4.2-13.4,10.4-24,19.1-32.6c17.9-17.7,39.7-26.7,64.7-26.7 c83.6-0.1,168.7-0.1,251-0.1c3.9,0,8-0.3,12.8-1c15.9-2.5,29.6-9.3,40.7-20.3c15.3-15.1,23-34.1,23-56.5c0.1-46.1,0-93,0-138.4 c0-23.1,0-46.1,0-69.2c0-8.7-1.2-17.5-3.5-26.1c-4.9-17.6-14.7-33.1-29.3-46c-13.2-11.7-28.8-20.5-47.6-27 C585.9,89.2,562.1,85.4,535.4,85.4L535.4,85.4z M379.6,216.9l-0.2,0c-18.4-0.1-33.4-15.2-33.4-33.6 c0.1-18.4,14.9-33.3,33.1-33.3c0.2,0,0.4,0,0.5,0c9.1,0.1,17.5,3.6,23.7,10c6.2,6.3,9.7,15,9.6,23.7 C412.7,202,397.8,216.9,379.6,216.9L379.6,216.9z" class="st0"/></g></g><g><g><path d="M805.8,334c-4.9-1-9.5-1.5-14-2.8c-27.8-7.7-45.9-25.5-54.4-53c-0.5-1.5-0.6-3.1-0.6-4.7 c0-38.6,0-77.3,0-115.9c0-3.6-0.1-7.2,0.5-10.8c2.8-14.7,11.4-24.4,25.7-28.7c6-1.8,12.3-1.9,18.6-1.8c13.2,0.3,25.9,3,37.8,8.7 c23.9,11.3,38.2,30.3,43.9,56c0.2,1,0.2,2.1,0.2,3.1c0,112.2,0,224.4,0,336.7c0,1.6-0.3,3-1,4.4c-5,10.6-15.8,18-28.3,17.6 c-12.9-0.4-24.1-9.3-27.8-21.7c-0.5-1.7-0.7-3.5-0.7-5.2c0-59.6,0-119.2,0-178.8L805.8,334L805.8,334z" class="st0"/><path d="M778.6,116.3c1,0,2,0,3,0c13.2,0.3,25.9,3,37.8,8.7c23.9,11.3,38.2,30.3,43.9,56c0.2,1,0.2,2.1,0.2,3.1 c0,112.2,0,224.4,0,336.7c0,1.6-0.3,3-1,4.4c-4.9,10.3-15.2,17.6-27.3,17.6c-0.3,0-0.6,0-1,0c-12.9-0.4-24.1-9.3-27.8-21.7 c-0.5-1.7-0.7-3.5-0.7-5.2c0-59.6,0-119.2,0-178.8l0.1-3.1c-4.9-1-9.5-1.5-14-2.8c-27.8-7.7-45.9-25.5-54.4-53 c-0.5-1.5-0.6-3.1-0.6-4.7c0-38.6,0-77.3,0-115.9c0-3.6-0.1-7.2,0.5-10.8c2.8-14.7,11.4-24.4,25.7-28.7 C768.1,116.6,773.3,116.3,778.6,116.3 M778.6,115.3c-4.8,0-10.4,0.2-15.9,1.9c-14.6,4.4-23.5,14.3-26.4,29.5 c-0.5,3.3-0.5,6.5-0.5,9.6l0,1.3v115.9c0,1.5,0.1,3.3,0.7,5c8.6,27.9,27.1,45.9,55.1,53.6c2.9,0.9,5.9,1.4,9,1.9 c1.4,0.2,2.8,0.5,4.2,0.8l-0.1,2.3l0,178.8c0,2,0.2,3.8,0.7,5.5c3.9,13,15.4,22,28.7,22.4c0.3,0,0.7,0,1,0 c11.9,0,23-7.1,28.2-18.2c0.7-1.5,1.1-3,1.1-4.8V184.1c0-1,0-2.2-0.2-3.3c-5.9-26.5-20.8-45.5-44.5-56.7 c-11.5-5.5-24.4-8.5-38.2-8.8C780.6,115.3,779.6,115.3,778.6,115.3L778.6,115.3z" class="st0"/></g></g><g><g><path d="M175.8,333.7v3.2c0,59.5,0,119,0,178.5c0,2.7-0.4,5.2-1.5,7.7c-5,11.8-13.9,18.7-26.8,19.5 c-13.1,0.8-24.5-7.5-29.2-19c-0.2-0.6-0.3-1.2-0.3-1.9c-0.1-0.8,0-1.6,0-2.4c0-110.7,0-221.4,0-332.1c0-4.3,0.6-8.4,1.8-12.5 c8.4-27.6,26.5-45.6,54-54.2c14.2-4.5,28.7-5.6,43.4-2.8c7.3,1.3,13.4,5.2,18.3,10.7c6.4,7.1,9.4,15.5,9.4,25 c0,11.4,0,22.9,0,34.3c0,28.6,0,57.1,0,85.7c0,1.7-0.2,3.5-0.7,5.2c-8.4,28.7-31.6,49.3-61.2,54.2 C180.6,333.1,178.4,333.3,175.8,333.7L175.8,333.7z" class="st0"/><path d="M201.1,116.2c5.3,0,10.7,0.5,16.1,1.5c7.3,1.3,13.4,5.2,18.3,10.7c6.4,7.1,9.4,15.5,9.4,25 c0,11.4,0,22.9,0,34.3c0,28.6,0,57.1,0,85.7c0,1.7-0.2,3.5-0.7,5.2c-8.4,28.7-31.6,49.3-61.2,54.2c-2.4,0.3-4.6,0.5-7.2,0.9v3.2 c0,59.5,0,119,0,178.5c0,2.7-0.4,5.2-1.5,7.7c-5,11.8-13.9,18.7-26.8,19.5c-0.6,0-1.2,0.1-1.7,0.1c-12.4,0-23-8.1-27.5-19.1 c-0.2-0.6-0.3-1.2-0.3-1.9c-0.1-0.8,0-1.6,0-2.4c0-110.7,0-221.4,0-332.1c0-4.3,0.6-8.4,1.8-12.5c8.4-27.6,26.5-45.6,54-54.2 C182.8,117.7,191.9,116.2,201.1,116.2 M201.1,115.2v1V115.2L201.1,115.2c-9.1,0-18.4,1.5-27.6,4.4 c-27.8,8.7-46.2,27.2-54.7,54.9c-1.2,4.2-1.8,8.4-1.8,12.8v332.1c0,0.3,0,0.5,0,0.8c0,0.5,0,1.1,0,1.7c0,0.8,0.1,1.5,0.4,2.2 l0,0l0,0c4.9,12,16,19.7,28.4,19.7c0.6,0,1.2,0,1.8-0.1c13-0.8,22.3-7.6,27.7-20.1c1.1-2.4,1.6-5,1.6-8.1V336.9v-2.3 c1.4-0.2,2.7-0.3,4-0.5c0.8-0.1,1.6-0.2,2.4-0.3c14.7-2.4,28.2-8.8,39.1-18.4c10.8-9.6,18.8-22.2,22.9-36.5 c0.5-1.7,0.7-3.5,0.7-5.5v-85.7v-34.3c0-9.9-3.2-18.6-9.7-25.7c-5.4-6-11.7-9.7-18.9-11C212,115.7,206.5,115.2,201.1,115.2 L201.1,115.2z" class="st0"/></g></g></g><g><circle cx="377" cy="178" r="15" class="st0"/><circle cx="606.4" cy="795.9" r="23.3" class="st0"/><g><g><linearGradient id="SVGID_1_" x1="414.9" x2="757.088" y1="556.449" y2="214.261" gradientTransform="matrix(1 0 0 -1 0 984)" gradientUnits="userSpaceOnUse"><stop offset="0" style="stop-color:#ffdf51"/><stop offset="1" style="stop-color:#ffc938"/></linearGradient><path d="M724.8,289.9c5.6,14.4,14,26.8,25.6,36.7c11.5,9.9,24.5,17.1,39.7,19.8v3.4c0,55.2-0.1,110.4,0.1,165.6 c0,7,1.9,13.7,5.6,19.8c4.3,7.2,10,12.8,17.1,17.1c6,3.7,18.9,6.8,25.8,5.7c4.7-0.7,9.5-1.7,13.9-3.4 c7.1-2.7,13.1-7.3,17.9-13.3c1.1-1.5,2.2-3,3.2-4.5c3.7-5.3,5.5-11.2,5.5-17.5c0-47.1,0-94.2,0-141.4V375l0.4-0.2 c0.3,0.7,0.7,1.4,1,2.2c4.7,11.9,8.2,24.2,11.1,36.7c3,13,5.4,26.1,7,39.4c1.9,15.9,2.9,31.9,2.3,47.9 c-0.4,11.4-1.2,22.7-2.6,33.9c-4,30.5-11.2,60.2-24.5,88.1c-8.2,17.2-20.4,31.1-35.3,42.7c-9.5,7.4-20.6,11.9-32.1,15.3 c-11.5,3.4-23.2,5.3-35,6.8s-23.7,1.8-35.7,1.8c-74.6-0.1-149.3,0-223.9,0c-1.4,0-2.9,0.1-4.3,0.5c-5.6,1.5-9.3,6.4-9.2,11.7 c0.1,5.5,4.3,10.6,9.9,11.8c1.2,0.3,2.5,0.4,3.8,0.4c53.2,0,106.4,0.1,159.6-0.1c9.2,0,15.9,6.2,16,15.8 c0,9.9,0.1,19.8,0.1,29.8c0,19.5-0.1,39-0.1,58.6c0,10.7-2.7,20.5-9.1,29.2c-3.4,4.6-7.4,8.6-11.9,12.1 c-9.2,7.2-19.5,12.2-30.3,16.4c-14.4,5.5-29.3,9.2-44.4,12c-16.6,3.1-33.3,5-50.2,6.4c-26.2,2.1-52.4,2.6-78.6,2.3 c-6.9-0.1-13.8,0.1-20.6,0c-24.5-0.5-48.4-4.3-71.4-13c-16.5-6.2-31.6-14.8-44.5-26.8c-14.4-13.4-24.2-29.5-28.4-48.8 c-1.4-6.5-2.2-13.1-2.2-19.7c0-69.7,0-139.4,0-209c0-18.6,5.5-35.3,17.4-49.7c12.2-14.9,28.1-23.5,47.1-26.1 c4.3-0.6,8.8-0.7,13.1-0.8c9.4-0.1,18.9,0,28.3,0c73.4,0,146.7,0,220.1,0c16.3,0,31.7-3.8,45.9-11.8 c20.8-11.7,34.3-29.1,40.5-52.1c2.8-10.3,4.6-20.8,5.8-31.3c2.3-19.4,3.1-38.9,2.7-58.4c-0.3-12.8-1.2-25.6-2.4-38.3 c-0.1-1.2-0.4-2.4-0.6-3.5C712.7,299,718.3,291.6,724.8,289.9L724.8,289.9z M638.8,799.6c0-19-15.7-34.5-34.6-34.4 c-18.9,0.1-34.3,15.6-34.3,34.5c0,19,15.5,34.5,34.5,34.5C623.3,834.2,638.9,818.6,638.8,799.6L638.8,799.6z" class="st1"/></g></g><g><g><linearGradient id="SVGID_00000125604946441658667800000004486102847043217835_" x1="223.194" x2="565.336" y1="767.175" y2="425.033" gradientTransform="matrix(1 0 0 -1 0 984)" gradientUnits="userSpaceOnUse"><stop offset="0" style="stop-color:#387ab1"/><stop offset="1" style="stop-color:#366a96"/></linearGradient><path style="fill:url(#SVGID_00000125604946441658667800000004486102847043217835_)" d="M191.5,346.7 c30.1-7.2,50.8-25.3,63.9-53c0.8,0,1.7,0,2.7,0c71,0,141.9,0,212.9,0c1.9,0,3.9-0.2,5.7-0.8c5.6-1.8,9.3-7.2,8.6-12.6 c-0.7-5.6-5.7-10.5-11.4-11c-0.9-0.1-1.8-0.1-2.6-0.1c-53.4,0-106.7,0-160.1,0c-8.6,0-14.8-6.1-15-14.8 c-0.2-11-0.2-22.1-0.2-33.1c0-18.8,0.3-37.6,0.1-56.4c-0.1-15.1,5.7-27.5,16.7-37.6c6.8-6.3,14.7-11.1,23-15.1 c12.5-6,25.7-10.1,39.2-13.4c14.9-3.6,29.9-6,45.1-7.8c34.1-4,68.3-5,102.5-4.4c1.8,0,3.7,0,5.5-0.1c27.2-0.7,54,2.4,79.8,11.3 c17.4,6,33.4,14.5,47.3,26.8c14,12.4,24,27.4,29,45.5c2.3,8.4,3.5,17.1,3.5,25.8c0,69.2,0.1,138.4,0,207.6 c0,21.6-7.2,40.5-22.7,55.8c-11.1,11-24.6,17.6-40.1,20c-4.2,0.6-8.4,1-12.7,1c-83.7,0-167.4,0-251,0.1 c-25.4,0-47.3,9.1-65.4,27c-9.4,9.3-15.4,20.5-19.3,33c-3,9.4-4.9,19-6.2,28.8c-3.4,24.1-4.3,48.3-3.2,72.5 c0.4,10.6,1.5,21.2,2.3,31.8c0.1,1.4,0.5,2.8,0.6,4.3c0.3,7.5-4.5,13.9-11.8,15.8c-1.2,0.3-2.5,0.4-3.8,0.4 c-18,0.1-35.7-2.3-53.1-7.3c-20.7-5.9-39.9-15-57.6-27.3c-15.7-10.9-27.5-25-35.7-42.2c-5.9-12.3-10.2-25.2-13.7-38.3 c-4.1-15.6-7.2-31.5-9.2-47.5c-2.4-19.1-3.1-38.2-2.1-57.5c1.2-23.4,4.6-46.5,10.7-69.1c2.2-8.2,5-16.3,7.6-24.5 c0.2-0.5,0.4-1,1-1.6c0,0.8,0.1,1.6,0.1,2.4c0,20.8,0,41.6,0,62.4c0,25.4,0,50.7,0,76.1c0,6,1.8,11.5,5,16.5 c4,6.2,9,11.4,15.3,15.3c3.1,1.9,6.3,3.5,9.8,4.3c2.4,0.6,4.8,1.2,7.2,1.7c4.5,1,9,1,13.6-0.1c1.7-0.4,3.4-0.9,5.1-1.2 c8.6-1.7,15.4-6.6,21.3-12.7c3.4-3.6,6.4-7.6,8.2-12.3c1.3-3.5,2.2-7.2,3.1-10.8c0.4-1.5,0.5-3.2,0.5-4.7 c0-55.3,0-110.6,0-165.8C191.5,348.8,191.5,347.8,191.5,346.7L191.5,346.7z M345,183.3c0,19.1,15.3,34.5,34.4,34.6 c18.9,0.1,34.3-15.4,34.5-34.2c0.2-17.9-14-34.5-34.3-34.7C360.5,148.7,345.1,164.2,345,183.3L345,183.3z"/></g></g><g><g><linearGradient id="SVGID_00000145742499431020111500000002852166703705122996_" x1="682.526" x2="940.517" y1="792.21" y2="534.218" gradientTransform="matrix(1 0 0 -1 0 984)" gradientUnits="userSpaceOnUse"><stop offset="0" style="stop-color:#387ab1"/><stop offset="1" style="stop-color:#366a96"/></linearGradient><path style="fill:url(#SVGID_00000145742499431020111500000002852166703705122996_)" d="M805.8,334c-4.9-1-9.5-1.5-14-2.8 c-27.8-7.7-45.9-25.5-54.4-53c-0.5-1.5-0.6-3.1-0.6-4.7c0-38.6,0-77.3,0-115.9c0-3.6-0.1-7.2,0.5-10.8 c2.8-14.7,11.4-24.4,25.7-28.7c6-1.8,12.3-1.9,18.6-1.8c13.2,0.3,25.9,3,37.8,8.7c23.9,11.3,38.2,30.3,43.9,56 c0.2,1,0.2,2.1,0.2,3.1c0,112.2,0,224.4,0,336.7c0,1.6-0.3,3-1,4.4c-5,10.6-15.8,18-28.3,17.6c-12.9-0.4-24.1-9.3-27.8-21.7 c-0.5-1.7-0.7-3.5-0.7-5.2c0-59.6,0-119.2,0-178.8L805.8,334L805.8,334z"/></g></g><g><g><linearGradient id="SVGID_00000037671670008995869840000017982840633019141528_" x1="64.663" x2="275.241" y1="768.551" y2="557.972" gradientTransform="matrix(1 0 0 -1 0 984)" gradientUnits="userSpaceOnUse"><stop offset="0" style="stop-color:#ffdf51"/><stop offset="1" style="stop-color:#ffc938"/></linearGradient><path style="fill:url(#SVGID_00000037671670008995869840000017982840633019141528_)" d="M175.8,333.7v3.2c0,59.5,0,119,0,178.5 c0,2.7-0.4,5.2-1.5,7.7c-5,11.8-13.9,18.7-26.8,19.5c-13.1,0.8-24.5-7.5-29.2-19c-0.2-0.6-0.3-1.2-0.3-1.9c-0.1-0.8,0-1.6,0-2.4 c0-110.7,0-221.4,0-332.1c0-4.3,0.6-8.4,1.8-12.5c8.4-27.6,26.5-45.6,54-54.2c14.2-4.5,28.7-5.6,43.4-2.8 c7.3,1.3,13.4,5.2,18.3,10.7c6.4,7.1,9.4,15.5,9.4,25c0,11.4,0,22.9,0,34.3c0,28.6,0,57.1,0,85.7c0,1.7-0.2,3.5-0.7,5.2 c-8.4,28.7-31.6,49.3-61.2,54.2C180.6,333.1,178.4,333.3,175.8,333.7L175.8,333.7z"/></g></g></g></g></svg>