<?xml version="1.0" encoding="UTF-8"?><svg id="a" xmlns="http://www.w3.org/2000/svg" viewBox="0 0 162 162">
  <g>
    <line x1=".5" x2=".5" y2="9" style="fill:none; stroke:#fff; stroke-miterlimit:10;" />
    <line y1=".5" x2="9" y2=".5" style="fill:none; stroke:#fff; stroke-miterlimit:10;" />
  </g>
  <g>
    <line x1=".5" y1="17" x2=".5" y2="19" style="fill:none; stroke:#fff; stroke-miterlimit:10;" />
    <line x1=".5" y1="35" x2=".5" y2="37" style="fill:none; stroke:#fff; stroke-miterlimit:10;" />
    <line x1=".5" y1="71" x2=".5" y2="73" style="fill:none; stroke:#fff; stroke-miterlimit:10;" />
    <line x1=".5" y1="53" x2=".5" y2="55" style="fill:none; stroke:#fff; stroke-miterlimit:10;" />
    <line x1=".5" y1="125" x2=".5" y2="127" style="fill:none; stroke:#fff; stroke-miterlimit:10;" />
    <line x1=".5" y1="143" x2=".5" y2="145" style="fill:none; stroke:#fff; stroke-miterlimit:10;" />
    <line x1=".5" y1="107" x2=".5" y2="109" style="fill:none; stroke:#fff; stroke-miterlimit:10;" />
    <line x1=".5" y1="89" x2=".5" y2="91" style="fill:none; stroke:#fff; stroke-miterlimit:10;" />
    <line x1="161.5" y1="89" x2="161.5" y2="91" style="fill:none; stroke:#fff; stroke-miterlimit:10;" />
    <line x1="161.5" y1="17" x2="161.5" y2="19" style="fill:none; stroke:#fff; stroke-miterlimit:10;" />
    <line x1="161.5" y1="35" x2="161.5" y2="37" style="fill:none; stroke:#fff; stroke-miterlimit:10;" />
    <line x1="161.5" y1="71" x2="161.5" y2="73" style="fill:none; stroke:#fff; stroke-miterlimit:10;" />
    <line x1="161.5" y1="53" x2="161.5" y2="55" style="fill:none; stroke:#fff; stroke-miterlimit:10;" />
    <line x1="161.5" y1="125" x2="161.5" y2="127" style="fill:none; stroke:#fff; stroke-miterlimit:10;" />
    <line x1="161.5" y1="143" x2="161.5" y2="145" style="fill:none; stroke:#fff; stroke-miterlimit:10;" />
    <line x1="161.5" y1="107" x2="161.5" y2="109" style="fill:none; stroke:#fff; stroke-miterlimit:10;" />
    <line x1="18" y1="161" x2="18" y2="162" style="fill:none; stroke:#fff; stroke-miterlimit:10; stroke-width:2px;" />
    <line x1="36" y1="161" x2="36" y2="162" style="fill:none; stroke:#fff; stroke-miterlimit:10; stroke-width:2px;" />
    <line x1="54" y1="161" x2="54" y2="162" style="fill:none; stroke:#fff; stroke-miterlimit:10; stroke-width:2px;" />
    <line x1="72" y1="161" x2="72" y2="162" style="fill:none; stroke:#fff; stroke-miterlimit:10; stroke-width:2px;" />
    <line x1="90" y1="161" x2="90" y2="162" style="fill:none; stroke:#fff; stroke-miterlimit:10; stroke-width:2px;" />
    <line x1="108" y1="161" x2="108" y2="162" style="fill:none; stroke:#fff; stroke-miterlimit:10; stroke-width:2px;" />
    <line x1="126" y1="161" x2="126" y2="162" style="fill:none; stroke:#fff; stroke-miterlimit:10; stroke-width:2px;" />
    <line x1="144" y1="161" x2="144" y2="162" style="fill:none; stroke:#fff; stroke-miterlimit:10; stroke-width:2px;" />
    <line x1="18" y1="0" x2="18" y2="1" style="fill:none; stroke:#fff; stroke-miterlimit:10; stroke-width:2px;" />
    <line x1="36" y1="0" x2="36" y2="1" style="fill:none; stroke:#fff; stroke-miterlimit:10; stroke-width:2px;" />
    <line x1="54" y1="0" x2="54" y2="1" style="fill:none; stroke:#fff; stroke-miterlimit:10; stroke-width:2px;" />
    <line x1="72" y1="0" x2="72" y2="1" style="fill:none; stroke:#fff; stroke-miterlimit:10; stroke-width:2px;" />
    <line x1="90" y1="0" x2="90" y2="1" style="fill:none; stroke:#fff; stroke-miterlimit:10; stroke-width:2px;" />
    <line x1="108" y1="0" x2="108" y2="1" style="fill:none; stroke:#fff; stroke-miterlimit:10; stroke-width:2px;" />
    <line x1="126" y1="0" x2="126" y2="1" style="fill:none; stroke:#fff; stroke-miterlimit:10; stroke-width:2px;" />
    <line x1="144" y1="0" x2="144" y2="1" style="fill:none; stroke:#fff; stroke-miterlimit:10; stroke-width:2px;" />
  </g>
  <g>
    <line x1=".5" y1="153" x2=".5" y2="162" style="fill:none; stroke:#fff; stroke-miterlimit:10;" />
    <line y1="161.5" x2="9" y2="161.5" style="fill:none; stroke:#fff; stroke-miterlimit:10;" />
  </g>
  <g>
    <line x1="18" y1="17" x2="18" y2="19" style="fill:none; stroke:#fff; stroke-miterlimit:10; stroke-width:2px;" />
    <line x1="18" y1="35" x2="18" y2="37" style="fill:none; stroke:#fff; stroke-miterlimit:10; stroke-width:2px;" />
    <line x1="18" y1="71" x2="18" y2="73" style="fill:none; stroke:#fff; stroke-miterlimit:10; stroke-width:2px;" />
    <line x1="18" y1="53" x2="18" y2="55" style="fill:none; stroke:#fff; stroke-miterlimit:10; stroke-width:2px;" />
    <line x1="18" y1="125" x2="18" y2="127" style="fill:none; stroke:#fff; stroke-miterlimit:10; stroke-width:2px;" />
    <line x1="18" y1="143" x2="18" y2="145" style="fill:none; stroke:#fff; stroke-miterlimit:10; stroke-width:2px;" />
    <line x1="18" y1="107" x2="18" y2="109" style="fill:none; stroke:#fff; stroke-miterlimit:10; stroke-width:2px;" />
    <line x1="18" y1="89" x2="18" y2="91" style="fill:none; stroke:#fff; stroke-miterlimit:10; stroke-width:2px;" />
    <line x1="144" y1="17" x2="144" y2="19" style="fill:none; stroke:#fff; stroke-miterlimit:10; stroke-width:2px;" />
    <line x1="54" y1="16.97" x2="54" y2="18.97"
      style="fill:none; stroke:#fff; stroke-miterlimit:10; stroke-width:2px;" />
    <line x1="36" y1="17" x2="36" y2="19" style="fill:none; stroke:#fff; stroke-miterlimit:10; stroke-width:2px;" />
    <line x1="36" y1="35" x2="36" y2="37" style="fill:none; stroke:#fff; stroke-miterlimit:10; stroke-width:2px;" />
    <line x1="36" y1="71" x2="36" y2="73" style="fill:none; stroke:#fff; stroke-miterlimit:10; stroke-width:2px;" />
    <line x1="36" y1="53" x2="36" y2="55" style="fill:none; stroke:#fff; stroke-miterlimit:10; stroke-width:2px;" />
    <line x1="36" y1="125" x2="36" y2="127" style="fill:none; stroke:#fff; stroke-miterlimit:10; stroke-width:2px;" />
    <line x1="36" y1="143" x2="36" y2="145" style="fill:none; stroke:#fff; stroke-miterlimit:10; stroke-width:2px;" />
    <line x1="36" y1="107" x2="36" y2="109" style="fill:none; stroke:#fff; stroke-miterlimit:10; stroke-width:2px;" />
    <line x1="36" y1="89" x2="36" y2="91" style="fill:none; stroke:#fff; stroke-miterlimit:10; stroke-width:2px;" />
    <line x1="54" y1="34.97" x2="54" y2="36.97"
      style="fill:none; stroke:#fff; stroke-miterlimit:10; stroke-width:2px;" />
    <line x1="54" y1="70.97" x2="54" y2="72.97"
      style="fill:none; stroke:#fff; stroke-miterlimit:10; stroke-width:2px;" />
    <line x1="54" y1="52.97" x2="54" y2="54.97"
      style="fill:none; stroke:#fff; stroke-miterlimit:10; stroke-width:2px;" />
    <line x1="54" y1="124.97" x2="54" y2="126.97"
      style="fill:none; stroke:#fff; stroke-miterlimit:10; stroke-width:2px;" />
    <line x1="54" y1="142.97" x2="54" y2="144.97"
      style="fill:none; stroke:#fff; stroke-miterlimit:10; stroke-width:2px;" />
    <line x1="54" y1="106.97" x2="54" y2="108.97"
      style="fill:none; stroke:#fff; stroke-miterlimit:10; stroke-width:2px;" />
    <line x1="54" y1="88.97" x2="54" y2="90.97"
      style="fill:none; stroke:#fff; stroke-miterlimit:10; stroke-width:2px;" />
    <line x1="144" y1="35" x2="144" y2="37" style="fill:none; stroke:#fff; stroke-miterlimit:10; stroke-width:2px;" />
    <line x1="72" y1="16.97" x2="72" y2="18.97"
      style="fill:none; stroke:#fff; stroke-miterlimit:10; stroke-width:2px;" />
    <line x1="72" y1="34.97" x2="72" y2="36.97"
      style="fill:none; stroke:#fff; stroke-miterlimit:10; stroke-width:2px;" />
    <line x1="72" y1="70.97" x2="72" y2="72.97"
      style="fill:none; stroke:#fff; stroke-miterlimit:10; stroke-width:2px;" />
    <line x1="72" y1="52.97" x2="72" y2="54.97"
      style="fill:none; stroke:#fff; stroke-miterlimit:10; stroke-width:2px;" />
    <line x1="72" y1="124.97" x2="72" y2="126.97"
      style="fill:none; stroke:#fff; stroke-miterlimit:10; stroke-width:2px;" />
    <line x1="72" y1="142.97" x2="72" y2="144.97"
      style="fill:none; stroke:#fff; stroke-miterlimit:10; stroke-width:2px;" />
    <line x1="72" y1="106.97" x2="72" y2="108.97"
      style="fill:none; stroke:#fff; stroke-miterlimit:10; stroke-width:2px;" />
    <line x1="72" y1="88.97" x2="72" y2="90.97"
      style="fill:none; stroke:#fff; stroke-miterlimit:10; stroke-width:2px;" />
    <line x1="144" y1="71" x2="144" y2="73" style="fill:none; stroke:#fff; stroke-miterlimit:10; stroke-width:2px;" />
    <line x1="144" y1="53" x2="144" y2="55" style="fill:none; stroke:#fff; stroke-miterlimit:10; stroke-width:2px;" />
    <line x1="144" y1="125" x2="144" y2="127" style="fill:none; stroke:#fff; stroke-miterlimit:10; stroke-width:2px;" />
    <line x1="144" y1="143" x2="144" y2="145" style="fill:none; stroke:#fff; stroke-miterlimit:10; stroke-width:2px;" />
    <line x1="144" y1="107" x2="144" y2="109" style="fill:none; stroke:#fff; stroke-miterlimit:10; stroke-width:2px;" />
    <line x1="90" y1="17" x2="90" y2="19" style="fill:none; stroke:#fff; stroke-miterlimit:10; stroke-width:2px;" />
    <line x1="90" y1="35" x2="90" y2="37" style="fill:none; stroke:#fff; stroke-miterlimit:10; stroke-width:2px;" />
    <line x1="90" y1="71" x2="90" y2="73" style="fill:none; stroke:#fff; stroke-miterlimit:10; stroke-width:2px;" />
    <line x1="90" y1="53" x2="90" y2="55" style="fill:none; stroke:#fff; stroke-miterlimit:10; stroke-width:2px;" />
    <line x1="90" y1="125" x2="90" y2="127" style="fill:none; stroke:#fff; stroke-miterlimit:10; stroke-width:2px;" />
    <line x1="90" y1="143" x2="90" y2="145" style="fill:none; stroke:#fff; stroke-miterlimit:10; stroke-width:2px;" />
    <line x1="90" y1="107" x2="90" y2="109" style="fill:none; stroke:#fff; stroke-miterlimit:10; stroke-width:2px;" />
    <line x1="90" y1="89" x2="90" y2="91" style="fill:none; stroke:#fff; stroke-miterlimit:10; stroke-width:2px;" />
    <line x1="144" y1="89" x2="144" y2="91" style="fill:none; stroke:#fff; stroke-miterlimit:10; stroke-width:2px;" />
    <line x1="126" y1="17" x2="126" y2="19" style="fill:none; stroke:#fff; stroke-miterlimit:10; stroke-width:2px;" />
    <line x1="126" y1="35" x2="126" y2="37" style="fill:none; stroke:#fff; stroke-miterlimit:10; stroke-width:2px;" />
    <line x1="126" y1="71" x2="126" y2="73" style="fill:none; stroke:#fff; stroke-miterlimit:10; stroke-width:2px;" />
    <line x1="126" y1="53" x2="126" y2="55" style="fill:none; stroke:#fff; stroke-miterlimit:10; stroke-width:2px;" />
    <line x1="126" y1="125" x2="126" y2="127" style="fill:none; stroke:#fff; stroke-miterlimit:10; stroke-width:2px;" />
    <line x1="126" y1="143" x2="126" y2="145" style="fill:none; stroke:#fff; stroke-miterlimit:10; stroke-width:2px;" />
    <line x1="126" y1="107" x2="126" y2="109" style="fill:none; stroke:#fff; stroke-miterlimit:10; stroke-width:2px;" />
    <line x1="126" y1="89" x2="126" y2="91" style="fill:none; stroke:#fff; stroke-miterlimit:10; stroke-width:2px;" />
    <line x1="108" y1="17" x2="108" y2="19" style="fill:none; stroke:#fff; stroke-miterlimit:10; stroke-width:2px;" />
    <line x1="108" y1="35" x2="108" y2="37" style="fill:none; stroke:#fff; stroke-miterlimit:10; stroke-width:2px;" />
    <line x1="108" y1="71" x2="108" y2="73" style="fill:none; stroke:#fff; stroke-miterlimit:10; stroke-width:2px;" />
    <line x1="108" y1="53" x2="108" y2="55" style="fill:none; stroke:#fff; stroke-miterlimit:10; stroke-width:2px;" />
    <line x1="108" y1="125" x2="108" y2="127" style="fill:none; stroke:#fff; stroke-miterlimit:10; stroke-width:2px;" />
    <line x1="108" y1="143" x2="108" y2="145" style="fill:none; stroke:#fff; stroke-miterlimit:10; stroke-width:2px;" />
    <line x1="108" y1="107" x2="108" y2="109" style="fill:none; stroke:#fff; stroke-miterlimit:10; stroke-width:2px;" />
    <line x1="108" y1="89" x2="108" y2="91" style="fill:none; stroke:#fff; stroke-miterlimit:10; stroke-width:2px;" />
  </g>
  <g>
    <line x1="161.5" x2="161.5" y2="9" style="fill:none; stroke:#fff; stroke-miterlimit:10;" />
    <line x1="153" y1=".5" x2="162" y2=".5" style="fill:none; stroke:#fff; stroke-miterlimit:10;" />
  </g>
  <g>
    <line x1="161.5" y1="153" x2="161.5" y2="162" style="fill:none; stroke:#fff; stroke-miterlimit:10;" />
    <line x1="153" y1="161.5" x2="162" y2="161.5" style="fill:none; stroke:#fff; stroke-miterlimit:10;" />
  </g>
</svg>